/* XPM */
static char *ad487cd84e3f4491d2e9ecfcec385d0aX4au1OxnemahAtAr[] = {
/* columns rows colors chars-per-pixel */
"32 32 38 1 ",
"  c None",
". c black",
"X c #100000",
"o c #180000",
"O c #001000",
"+ c #001800",
"@ c #161405",
"# c #101010",
"$ c #181818",
"% c #200000",
"& c #300000",
"* c #211E08",
"= c #002000",
"- c #2D280A",
"; c #202020",
": c gray19",
"> c #400000",
", c #590C02",
"< c #600000",
"1 c #433C10",
"2 c #4E4613",
"3 c #6E631B",
"4 c gray25",
"5 c #505050",
"6 c #5A5A5A",
"7 c #606060",
"8 c gray43",
"9 c #800000",
"0 c #A00000",
"q c #AA3D02",
"w c #BE5C05",
"e c #837620",
"r c #988925",
"t c #AD9B2A",
"y c #CB8A0B",
"u c #DCCD6F",
"i c #DED079",
"p c #B2B2B2",
/* pixels */
"           ..     ..            ",
"  ,       .er.. ..te.           ",
",  y      .t2tt.it13.           ",
" ,w       .t1.1i.123.           ",
" qy,     ...u.t1r23...       ,  ",
"qwq    ..;4.eu1.2e3@4:..      y ",
"qywq, .44:@e1t...313*:;4.       ",
",yyw .754-e2.2...e.32*:44.  ,y  ",
"wyyw.57441rerur31t2er2$:::. yy, ",
",ww,:4::..11121.ee211..$::4.yq, ",
".,6.::;......131t2......$::.6p. ",
".6:4:;........ru2........$:4:6. ",
".8p8::.........3.........$:8p8. ",
".64:$.....................$:46. ",
".p8:$..........>......>...$:8p. ",
".8;;$..........>.....>....$;;8. ",
".6;4;......>..>>>>........;4;6. ",
".::4;.......>><<<<>.......;4::. ",
" .44;.......><9999<>......;5:.  ",
" .:4;..&&>>><<9009<<>>&&%.;5;.  ",
" .::$.....%%%%&&&%%%%%....;4;.  ",
" .::$....................=;5;.  ",
" .4:#.X..............X..o=;4:.  ",
" .:4$XXX+oX.....XX.XXXXXXo$5:.  ",
" .44#.X+.oXX..=XXO..o.o.Xo;54.  ",
" .54#.X+.oX&.X.+...X.OXXo.;45.  ",
" .::#XX+X&OX..XO%XX&XX&=o.;74.  ",
" .::$O&X.X&XXX+XXX&Oo&=X%%;5:.  ",
" .:4#O%XoX%%XX.X%X&X%%+%%O;4:.  ",
" .45444457577575577555444544:.  ",
" .54::;:::44::;;::444;$;;;:;:.  ",
" .............................  "
};
