/* XPM */
static char *_9b541c899b14943b060a5754ee80c9djK7ED5hRk8qBrWFb[] = {
/* columns rows colors chars-per-pixel */
"32 32 12 1 ",
"  c black",
". c #001010",
"X c #001818",
"o c #002020",
"O c #003030",
"+ c #004040",
"@ c #006060",
"# c #008080",
"$ c #101010",
"% c #202020",
"& c gray19",
"* c gray25",
/* pixels */
"%%%&&&**&*****&*&&&%&&%&%%$%$$$$",
"%.........&X..XXXX.&XX.......$. ",
"%.%%%%$%%.$X$%$$$%X$o$$$$ $$X . ",
"&.$.XXXX$X$XooXXoXo$o$XXX$. .$X ",
"&.$.$%$$$o%X$%$%$$X o$o%X$X$. X ",
"&.%X%XXXXXXo$XXoX$o$o o$X$. X$. ",
"&.$X$o$$$$%$%$$%o$$$X$o$o$o$X X ",
"*X%o$X$XooXooOo$OooOo$X$oXo$oX. ",
"&.$X$o$X%$$%$$o$$$ $$$O$$$ $$$  ",
"*.%X$X%X$oOOo$++OO+OOooOoXXoXo. ",
"*.%oXX$o$O$%$$$$%$$$O$%$ $$$$ . ",
"*X$$%$%O$o$O+$O+@O+OO$+ooOooo . ",
"&XXXoX$o$O $+$+$$$$$O O$ $$ X X ",
"*%$$$X$O$O++@$@$@#@++$+$ooo$o$. ",
"&XXXoo$o$O$$$$@$@$$$O$+$o$$$o X ",
"*X%$$$$O +@#@$# @$# @ @$O$o$o$X ",
"&X%oXoOo$$$$ $@$@%@$#$+ O$o$o X ",
"&X$o$$$$$$+O++@$#$+$@$O$ooo$X$X ",
"*.$X$XO$o$+$$$ $@$+$+ O$$     . ",
"&.$X$$O$o$O$+++++$+$O Oooo$XoX. ",
"%.$XXXo$O$O$$$$  $O$+$$  o$X $  ",
"&.$$ $%$o$oOO+OOO$+$OoOo X$oXXX ",
"%X.XXXX$o$$$$$$ O$O$$$$$$o$$$$X ",
"&%$$$$X$XooO+oO$o$OooooX$ooXX X ",
"%X$XX$o$$$$$ $o o$$$ $ o$  $X$X ",
"%.$X $X$ooXXX$o oooXXX$XXXX.X$X ",
"&.$X.XX X   o o $ $ $$o   $$. . ",
"%.$ $$ $X X$o$o$o ooX X$XX.$. X ",
"$.$X..X$. o$o X X$o o$X$.$. X . ",
"%.$ $ X . X X$X$X X  $X$. X$ $. ",
"$.....X XXX .XXXX X.XXX X ...X. ",
"$                               "
};
