/* XPM */
static char *fd7506aa0b7f4e4a94d036013169727fCJwrrTtkJR92K99H[] = {
/* columns rows colors chars-per-pixel */
"32 32 7 1 ",
"  c None",
". c black",
"X c #2F4780",
"o c #367D98",
"O c #49C5B8",
"+ c #8FF1A8",
"@ c #F1FEFE",
/* pixels */
"                                ",
"                                ",
"            o                   ",
"          oo                    ",
"         oo   oooooo            ",
"    o   ooo ooooOoo             ",
"   o   ooOoooOoOoooo            ",
"    o ooOoOoOOOOOoOoo o         ",
"   oo oOOO+O++OOOOoOoooo        ",
"  oo ooOO+O+O++O+OOOOooOooo     ",
"  ooooO+@@@@++++O+OOOOooOOoo    ",
"  oOoO+@@@@@@+@++O+O+OOoO+Ooo   ",
"  oOO+@@@@@@@@@@+++@++OOoOoo    ",
"   oO+@@@@@@@@+@@+@+@+@+OoOoo   ",
"  oO++@@@@@@@+@@++++OO++++OOo   ",
"  o+@@@@@+oo@@+@@+OOooOooO+OOo  ",
"  o@Xo+@+.OX@+@++OOoooooooOOOo  ",
"  o@XOX@+X.X@+++OXoo     ooOoo  ",
"  o+oX.@@oXO@OX..Xo       ooOoX ",
"  oO+o@o+@@@+X..Xoo  o     ooXX ",
"  ooO+@O.+@++.X.ooO o      XoX  ",
"  oooO@@@O@o+.o.OoOoo      XX   ",
"   oXo@O@o....O.oOoo      XX    ",
"   ooX.......X+XOOoo o    X     ",
"    ooO....XoO+oOoo OO    X     ",
"   o ooX@O@O@@+Ooo  O      X    ",
"    Oooo@+@+oXXXo  o            ",
"     OOooX...Xoo                ",
"      O  ooooo                  ",
"       o                        ",
"                                ",
"                                "
};
