/* XPM */
static char *_ad0227a908248c881bad66d5ea9fcfe4GvidFurqEkKLDxO[] = {
/* columns rows colors chars-per-pixel */
"32 32 21 1 ",
"  c None",
". c black",
"X c #0E0E0E",
"o c #181818",
"O c gray14",
"+ c #313131",
"@ c #3F3F3F",
"# c gray30",
"$ c #5D5D5D",
"% c #6D6D6D",
"& c gray49",
"* c #FB006D",
"= c #93624C",
"- c #BD7C5F",
"; c #DD906F",
": c #FDA67F",
"> c gray56",
", c #A0A0A0",
"< c gray70",
"1 c #FEC99F",
"2 c #C5C5C5",
/* pixels */
"     ......          ..         ",
"   ..O+O&OO.       ..@$.        ",
"  .&oo&&$&oO.     .$@+O+.       ",
" .&Oo&$@OooO,.   .@OOoOOo.      ",
" .,Oo&@&ooo,&.   .OoOo+oOo.     ",
" .,O$,@,&@$O.   .@Oo+OOo+o.     ",
" .&@@,$&@$,O,.  .%OO+O@OOOo.    ",
" .&$@&,@$,&&@. .%$O@OO+o@ooo.   ",
".@.,@&,@,&$@&,.o$@o@+oOo@oOo.   ",
".+Oo,@&@-$@,$oo$#@o+Oo+O+oOO.   ",
".OO&$-1:-@,&@o%#@#O+O@oO+O+oo.  ",
".,oo&*:*:;@@o%$##@OoO@o+OoO@o.  ",
".O,&@-1::,&o&##$@#+o@O+oOo+@O.  ",
".+oo$o-:-&oo#$##@@OO@oOO@Oo@Oo. ",
".@OOo-11:-oO@#@$@&oO+o+o@+oo+o. ",
".OooO;;:;;;$#$$&&,Oo+OOo+O$OoO. ",
".+OO::::::&$$$&&,$+oO@$OOo&$oOo.",
".@oO::-::;$&,,$$$%,O+@&O+oO,&Oo.",
".+oO:;-:;-$,<<,%&&,+Oo&&Oo@,&O. ",
" .OO-----$&,2<,$>22,O+o&O+@,2&. ",
" .O@O---&$,<2,,$&222,Oo&$+O,2,. ",
"  .&O&==$&,22,,#&>2<,&O&,OO.22. ",
"  .,&@@$&$&2<,&@@&>%%,2,,O..22. ",
"   .,&@$@@&2<,#@...o$,2,,$..2,. ",
"   .<,&...&<<&..  .oo,,2,&..2.  ",
"    .<&.  .2,&.   .OooX2,&.2,.  ",
"    .<,.  .2,&.  .OOoX&,,..,..  ",
"   .2,&...<2,.....OooX2,,...... ",
"  .2<<$...2,&....OOooX22,.......",
" .,,,&$..,,,&...ooooX,,,&.......",
" .2&2....2&2....+o+.2,2&....... ",
"  ............................  "
};
