/* XPM */
static char *_13b91f684534afccfd887d2239e91b5Ar10s1wM35Wy0wuK[] = {
/* columns rows colors chars-per-pixel */
"32 32 7 1 ",
"  c #200000",
". c #300000",
"X c #400000",
"o c #600000",
"O c #800000",
"+ c #A00000",
"@ c #C00000",
/* pixels */
"OO+@@@++O@@+OOOOO++@@++oO@@+oXoX",
"OoX.XXoOo+@+OooOooO+@OooOooooOo.",
"+ooXXooOX++OooXOooOO+OoXooOOOOo.",
"+OoOoOoOXoOoXX   .ooOOXXXOOOoOo ",
"@OoOO+OOoXo   XoXX . ooXOO++Ooo.",
"@+Oo@@+OX  XX..XoXX.  .oOOO+@Oo ",
"++OO+@OO.XXXXXX....  XX.oooO@OO ",
"+OOoOoo  .oXooXXXX. .XoX.ooO+++.",
"OOXooX.   .XoXX.XXX .XooX.ooO@O ",
"OooXX X.XXXoX.XXXX.  oXooX.oO@O ",
"OoOOo XXoXXX..   XX. XXXXX.oo+o ",
"+o+O..ooX.X    X..X.  ..X. .oOo ",
"@O+o  ...X   o+O+O+ ..X..  .ooX ",
"+oOo..X.X XO+X.  XX+oXX. .X.XXX ",
"Ooo.XX. XXOX.  +O ...oX  XXXOXo ",
"OOo XX. X XX  O  O.XXXX .ooXOoO ",
"+OO XoX.X   oX+  +.o.XX. ooX+oO ",
"OoO XooXX..X+X ++ X+.. X XoX+Xo ",
"+oo.oXX.X.  X+X .Xo.. Xo XXXOXX ",
"Ooo.Xo..XX. XX+++oX. XXX .XX+Xo ",
"OOo oX XX X .  .X. . XXX. .XOoo ",
"+oO.XX..XXX.       ..XX .X..+oo ",
"@OO .XX.XXXX. .X. .X .X.oXXX+OO ",
"@+O .oX XoXXX .XX.XX .XXo..XO++ ",
"OoO .Xo XXoXX..XX.XX .XXo .X@O+ ",
"Ooo  ...XoXXXXXXXXXX.  XX XX@O+ ",
"+oo.X.XXXoX. .Xooo..  .. .XX+oO ",
"+oO X.  .XX .XXXXX.  ...XXXXOoO.",
"+O+OOOO+@@+@@+@++@@++O+OOO+OOoo.",
"++OooXooooOOooXXooOOOoX.XXXoXoX ",
"OoOoXX.XoOOOoX.XXXoOoX..XooXooo ",
"X.          . .. ....       ...."
};
